<mxfile host="app.diagrams.net" modified="2021-08-17T13:08:38.873Z" agent="5.0 (Windows NT 10.0; Win64; x64) AppleWebKit/537.36 (KHTML, like Gecko) Chrome/92.0.4515.131 Safari/537.36" etag="VMlLaXvWGHunv2Ig1smX" version="14.9.6" type="github">
  <diagram id="C5RBs43oDa-KdzZeNtuy" name="Page-1">
    <mxGraphModel dx="1935" dy="450" grid="1" gridSize="10" guides="1" tooltips="1" connect="1" arrows="1" fold="1" page="1" pageScale="1" pageWidth="827" pageHeight="1169" math="0" shadow="0">
      <root>
        <mxCell id="WIyWlLk6GJQsqaUBKTNV-0" />
        <mxCell id="WIyWlLk6GJQsqaUBKTNV-1" parent="WIyWlLk6GJQsqaUBKTNV-0" />
        <mxCell id="xq2F28zSy12SkbfvyaUk-0" value="«interface»&lt;br&gt;&lt;b&gt;RpcServer&lt;/b&gt;" style="html=1;" vertex="1" parent="WIyWlLk6GJQsqaUBKTNV-1">
          <mxGeometry x="315" y="70" width="110" height="50" as="geometry" />
        </mxCell>
        <mxCell id="xq2F28zSy12SkbfvyaUk-9" style="edgeStyle=orthogonalEdgeStyle;rounded=0;orthogonalLoop=1;jettySize=auto;html=1;exitX=0.5;exitY=0;exitDx=0;exitDy=0;" edge="1" parent="WIyWlLk6GJQsqaUBKTNV-1" source="xq2F28zSy12SkbfvyaUk-1" target="xq2F28zSy12SkbfvyaUk-0">
          <mxGeometry relative="1" as="geometry" />
        </mxCell>
        <mxCell id="xq2F28zSy12SkbfvyaUk-1" value="NettyServer" style="swimlane;fontStyle=1;align=center;verticalAlign=top;childLayout=stackLayout;horizontal=1;startSize=26;horizontalStack=0;resizeParent=1;resizeParentMax=0;resizeLast=0;collapsible=1;marginBottom=0;" vertex="1" parent="WIyWlLk6GJQsqaUBKTNV-1">
          <mxGeometry x="290" y="180" width="160" height="60" as="geometry" />
        </mxCell>
        <mxCell id="xq2F28zSy12SkbfvyaUk-3" value="" style="line;strokeWidth=1;fillColor=none;align=left;verticalAlign=middle;spacingTop=-1;spacingLeft=3;spacingRight=3;rotatable=0;labelPosition=right;points=[];portConstraint=eastwest;" vertex="1" parent="xq2F28zSy12SkbfvyaUk-1">
          <mxGeometry y="26" width="160" height="8" as="geometry" />
        </mxCell>
        <mxCell id="xq2F28zSy12SkbfvyaUk-4" value="+ start(int port): void" style="text;strokeColor=none;fillColor=none;align=left;verticalAlign=top;spacingLeft=4;spacingRight=4;overflow=hidden;rotatable=0;points=[[0,0.5],[1,0.5]];portConstraint=eastwest;" vertex="1" parent="xq2F28zSy12SkbfvyaUk-1">
          <mxGeometry y="34" width="160" height="26" as="geometry" />
        </mxCell>
        <mxCell id="xq2F28zSy12SkbfvyaUk-7" value="&lt;pre style=&quot;background-color: #2b2b2b ; color: #a9b7c6 ; font-family: &amp;quot;consolas&amp;quot; ; font-size: 10.5pt&quot;&gt;pipeline.addLast(&lt;span style=&quot;color: #cc7832&quot;&gt;new &lt;/span&gt;CommonEncoder(&lt;span style=&quot;color: #cc7832&quot;&gt;new &lt;/span&gt;JsonSerializer()))&lt;span style=&quot;color: #cc7832&quot;&gt;;&lt;br&gt;&lt;/span&gt;pipeline.addLast(&lt;span style=&quot;color: #cc7832&quot;&gt;new &lt;/span&gt;CommonDecoder())&lt;span style=&quot;color: #cc7832&quot;&gt;;&lt;br&gt;&lt;/span&gt;pipeline.addLast(&lt;span style=&quot;color: #cc7832&quot;&gt;new &lt;/span&gt;NettyServerHandler())&lt;span style=&quot;color: #cc7832&quot;&gt;;&lt;/span&gt;&lt;/pre&gt;" style="text;whiteSpace=wrap;html=1;" vertex="1" parent="WIyWlLk6GJQsqaUBKTNV-1">
          <mxGeometry x="-190" y="165" width="470" height="90" as="geometry" />
        </mxCell>
        <mxCell id="xq2F28zSy12SkbfvyaUk-21" style="edgeStyle=orthogonalEdgeStyle;rounded=0;orthogonalLoop=1;jettySize=auto;html=1;exitX=0.5;exitY=0;exitDx=0;exitDy=0;entryX=0.5;entryY=1;entryDx=0;entryDy=0;" edge="1" parent="WIyWlLk6GJQsqaUBKTNV-1" source="xq2F28zSy12SkbfvyaUk-10" target="xq2F28zSy12SkbfvyaUk-15">
          <mxGeometry relative="1" as="geometry" />
        </mxCell>
        <mxCell id="xq2F28zSy12SkbfvyaUk-10" value="NettyServerHandler" style="swimlane;fontStyle=1;align=center;verticalAlign=top;childLayout=stackLayout;horizontal=1;startSize=26;horizontalStack=0;resizeParent=1;resizeParentMax=0;resizeLast=0;collapsible=1;marginBottom=0;" vertex="1" parent="WIyWlLk6GJQsqaUBKTNV-1">
          <mxGeometry x="-25" y="400" width="160" height="112" as="geometry" />
        </mxCell>
        <mxCell id="xq2F28zSy12SkbfvyaUk-11" value="+ RequestHandler" style="text;strokeColor=none;fillColor=none;align=left;verticalAlign=top;spacingLeft=4;spacingRight=4;overflow=hidden;rotatable=0;points=[[0,0.5],[1,0.5]];portConstraint=eastwest;" vertex="1" parent="xq2F28zSy12SkbfvyaUk-10">
          <mxGeometry y="26" width="160" height="26" as="geometry" />
        </mxCell>
        <mxCell id="xq2F28zSy12SkbfvyaUk-14" value="+ ServiceRegistry" style="text;strokeColor=none;fillColor=none;align=left;verticalAlign=top;spacingLeft=4;spacingRight=4;overflow=hidden;rotatable=0;points=[[0,0.5],[1,0.5]];portConstraint=eastwest;" vertex="1" parent="xq2F28zSy12SkbfvyaUk-10">
          <mxGeometry y="52" width="160" height="26" as="geometry" />
        </mxCell>
        <mxCell id="xq2F28zSy12SkbfvyaUk-12" value="" style="line;strokeWidth=1;fillColor=none;align=left;verticalAlign=middle;spacingTop=-1;spacingLeft=3;spacingRight=3;rotatable=0;labelPosition=right;points=[];portConstraint=eastwest;" vertex="1" parent="xq2F28zSy12SkbfvyaUk-10">
          <mxGeometry y="78" width="160" height="8" as="geometry" />
        </mxCell>
        <mxCell id="xq2F28zSy12SkbfvyaUk-13" value="+ channelRead0" style="text;strokeColor=none;fillColor=none;align=left;verticalAlign=top;spacingLeft=4;spacingRight=4;overflow=hidden;rotatable=0;points=[[0,0.5],[1,0.5]];portConstraint=eastwest;" vertex="1" parent="xq2F28zSy12SkbfvyaUk-10">
          <mxGeometry y="86" width="160" height="26" as="geometry" />
        </mxCell>
        <mxCell id="xq2F28zSy12SkbfvyaUk-15" value="SimpleChannelInBoundHandler" style="swimlane;fontStyle=1;align=center;verticalAlign=top;childLayout=stackLayout;horizontal=1;startSize=26;horizontalStack=0;resizeParent=1;resizeParentMax=0;resizeLast=0;collapsible=1;marginBottom=0;" vertex="1" parent="WIyWlLk6GJQsqaUBKTNV-1">
          <mxGeometry x="-40" y="310" width="190" height="34" as="geometry" />
        </mxCell>
        <mxCell id="xq2F28zSy12SkbfvyaUk-17" value="" style="line;strokeWidth=1;fillColor=none;align=left;verticalAlign=middle;spacingTop=-1;spacingLeft=3;spacingRight=3;rotatable=0;labelPosition=right;points=[];portConstraint=eastwest;" vertex="1" parent="xq2F28zSy12SkbfvyaUk-15">
          <mxGeometry y="26" width="190" height="8" as="geometry" />
        </mxCell>
        <mxCell id="xq2F28zSy12SkbfvyaUk-23" value="«interface»&lt;br&gt;&lt;b&gt;RpcClient&lt;/b&gt;" style="html=1;" vertex="1" parent="WIyWlLk6GJQsqaUBKTNV-1">
          <mxGeometry x="560" y="70" width="110" height="50" as="geometry" />
        </mxCell>
        <mxCell id="xq2F28zSy12SkbfvyaUk-34" style="edgeStyle=orthogonalEdgeStyle;rounded=0;orthogonalLoop=1;jettySize=auto;html=1;exitX=0.5;exitY=0;exitDx=0;exitDy=0;entryX=0.5;entryY=1;entryDx=0;entryDy=0;" edge="1" parent="WIyWlLk6GJQsqaUBKTNV-1" source="xq2F28zSy12SkbfvyaUk-28" target="xq2F28zSy12SkbfvyaUk-23">
          <mxGeometry relative="1" as="geometry" />
        </mxCell>
        <mxCell id="xq2F28zSy12SkbfvyaUk-28" value="NettyClient" style="swimlane;fontStyle=1;align=center;verticalAlign=top;childLayout=stackLayout;horizontal=1;startSize=26;horizontalStack=0;resizeParent=1;resizeParentMax=0;resizeLast=0;collapsible=1;marginBottom=0;" vertex="1" parent="WIyWlLk6GJQsqaUBKTNV-1">
          <mxGeometry x="535" y="180" width="160" height="138" as="geometry" />
        </mxCell>
        <mxCell id="xq2F28zSy12SkbfvyaUk-29" value="+ host: String" style="text;strokeColor=none;fillColor=none;align=left;verticalAlign=top;spacingLeft=4;spacingRight=4;overflow=hidden;rotatable=0;points=[[0,0.5],[1,0.5]];portConstraint=eastwest;" vertex="1" parent="xq2F28zSy12SkbfvyaUk-28">
          <mxGeometry y="26" width="160" height="26" as="geometry" />
        </mxCell>
        <mxCell id="xq2F28zSy12SkbfvyaUk-32" value="+ port: int" style="text;strokeColor=none;fillColor=none;align=left;verticalAlign=top;spacingLeft=4;spacingRight=4;overflow=hidden;rotatable=0;points=[[0,0.5],[1,0.5]];portConstraint=eastwest;" vertex="1" parent="xq2F28zSy12SkbfvyaUk-28">
          <mxGeometry y="52" width="160" height="26" as="geometry" />
        </mxCell>
        <mxCell id="xq2F28zSy12SkbfvyaUk-33" value="+ bootstrap: Bootstrap" style="text;strokeColor=none;fillColor=none;align=left;verticalAlign=top;spacingLeft=4;spacingRight=4;overflow=hidden;rotatable=0;points=[[0,0.5],[1,0.5]];portConstraint=eastwest;" vertex="1" parent="xq2F28zSy12SkbfvyaUk-28">
          <mxGeometry y="78" width="160" height="26" as="geometry" />
        </mxCell>
        <mxCell id="xq2F28zSy12SkbfvyaUk-30" value="" style="line;strokeWidth=1;fillColor=none;align=left;verticalAlign=middle;spacingTop=-1;spacingLeft=3;spacingRight=3;rotatable=0;labelPosition=right;points=[];portConstraint=eastwest;" vertex="1" parent="xq2F28zSy12SkbfvyaUk-28">
          <mxGeometry y="104" width="160" height="8" as="geometry" />
        </mxCell>
        <mxCell id="xq2F28zSy12SkbfvyaUk-31" value="+ sendRequest(Request)" style="text;strokeColor=none;fillColor=none;align=left;verticalAlign=top;spacingLeft=4;spacingRight=4;overflow=hidden;rotatable=0;points=[[0,0.5],[1,0.5]];portConstraint=eastwest;" vertex="1" parent="xq2F28zSy12SkbfvyaUk-28">
          <mxGeometry y="112" width="160" height="26" as="geometry" />
        </mxCell>
        <mxCell id="xq2F28zSy12SkbfvyaUk-35" value="&lt;pre style=&quot;background-color: #2b2b2b ; color: #a9b7c6 ; font-family: &amp;quot;consolas&amp;quot; ; font-size: 10.5pt&quot;&gt;pipeline.addLast(&lt;span style=&quot;color: #cc7832&quot;&gt;new &lt;/span&gt;CommonDecoder())&lt;br&gt;        .addLast(&lt;span style=&quot;color: #cc7832&quot;&gt;new &lt;/span&gt;CommonEncoder(&lt;span style=&quot;color: #cc7832&quot;&gt;new &lt;/span&gt;JsonSerializer()))&lt;br&gt;        .addLast(&lt;span style=&quot;color: #cc7832&quot;&gt;new &lt;/span&gt;NettyClientHandler())&lt;span style=&quot;color: #cc7832&quot;&gt;;&lt;/span&gt;&lt;/pre&gt;" style="text;whiteSpace=wrap;html=1;" vertex="1" parent="WIyWlLk6GJQsqaUBKTNV-1">
          <mxGeometry x="750" y="180" width="460" height="90" as="geometry" />
        </mxCell>
        <mxCell id="xq2F28zSy12SkbfvyaUk-36" value="SimpleChannelInBoundHandler" style="swimlane;fontStyle=1;align=center;verticalAlign=top;childLayout=stackLayout;horizontal=1;startSize=26;horizontalStack=0;resizeParent=1;resizeParentMax=0;resizeLast=0;collapsible=1;marginBottom=0;" vertex="1" parent="WIyWlLk6GJQsqaUBKTNV-1">
          <mxGeometry x="910" y="310" width="190" height="34" as="geometry" />
        </mxCell>
        <mxCell id="xq2F28zSy12SkbfvyaUk-37" value="" style="line;strokeWidth=1;fillColor=none;align=left;verticalAlign=middle;spacingTop=-1;spacingLeft=3;spacingRight=3;rotatable=0;labelPosition=right;points=[];portConstraint=eastwest;" vertex="1" parent="xq2F28zSy12SkbfvyaUk-36">
          <mxGeometry y="26" width="190" height="8" as="geometry" />
        </mxCell>
        <mxCell id="xq2F28zSy12SkbfvyaUk-43" style="edgeStyle=orthogonalEdgeStyle;rounded=0;orthogonalLoop=1;jettySize=auto;html=1;exitX=0.5;exitY=0;exitDx=0;exitDy=0;entryX=0.5;entryY=1;entryDx=0;entryDy=0;" edge="1" parent="WIyWlLk6GJQsqaUBKTNV-1" source="xq2F28zSy12SkbfvyaUk-38" target="xq2F28zSy12SkbfvyaUk-36">
          <mxGeometry relative="1" as="geometry" />
        </mxCell>
        <mxCell id="xq2F28zSy12SkbfvyaUk-38" value="NettyServerHandler" style="swimlane;fontStyle=1;align=center;verticalAlign=top;childLayout=stackLayout;horizontal=1;startSize=26;horizontalStack=0;resizeParent=1;resizeParentMax=0;resizeLast=0;collapsible=1;marginBottom=0;" vertex="1" parent="WIyWlLk6GJQsqaUBKTNV-1">
          <mxGeometry x="925" y="400" width="160" height="60" as="geometry" />
        </mxCell>
        <mxCell id="xq2F28zSy12SkbfvyaUk-41" value="" style="line;strokeWidth=1;fillColor=none;align=left;verticalAlign=middle;spacingTop=-1;spacingLeft=3;spacingRight=3;rotatable=0;labelPosition=right;points=[];portConstraint=eastwest;" vertex="1" parent="xq2F28zSy12SkbfvyaUk-38">
          <mxGeometry y="26" width="160" height="8" as="geometry" />
        </mxCell>
        <mxCell id="xq2F28zSy12SkbfvyaUk-42" value="+ channelRead0" style="text;strokeColor=none;fillColor=none;align=left;verticalAlign=top;spacingLeft=4;spacingRight=4;overflow=hidden;rotatable=0;points=[[0,0.5],[1,0.5]];portConstraint=eastwest;" vertex="1" parent="xq2F28zSy12SkbfvyaUk-38">
          <mxGeometry y="34" width="160" height="26" as="geometry" />
        </mxCell>
        <mxCell id="xq2F28zSy12SkbfvyaUk-49" value="MessageToByteEncoder" style="swimlane;fontStyle=1;align=center;verticalAlign=top;childLayout=stackLayout;horizontal=1;startSize=26;horizontalStack=0;resizeParent=1;resizeParentMax=0;resizeLast=0;collapsible=1;marginBottom=0;" vertex="1" parent="WIyWlLk6GJQsqaUBKTNV-1">
          <mxGeometry x="275" y="390" width="190" height="34" as="geometry" />
        </mxCell>
        <mxCell id="xq2F28zSy12SkbfvyaUk-50" value="" style="line;strokeWidth=1;fillColor=none;align=left;verticalAlign=middle;spacingTop=-1;spacingLeft=3;spacingRight=3;rotatable=0;labelPosition=right;points=[];portConstraint=eastwest;" vertex="1" parent="xq2F28zSy12SkbfvyaUk-49">
          <mxGeometry y="26" width="190" height="8" as="geometry" />
        </mxCell>
        <mxCell id="xq2F28zSy12SkbfvyaUk-55" style="edgeStyle=orthogonalEdgeStyle;rounded=0;orthogonalLoop=1;jettySize=auto;html=1;exitX=0.5;exitY=0;exitDx=0;exitDy=0;entryX=0.511;entryY=0.25;entryDx=0;entryDy=0;entryPerimeter=0;" edge="1" parent="WIyWlLk6GJQsqaUBKTNV-1" source="xq2F28zSy12SkbfvyaUk-51" target="xq2F28zSy12SkbfvyaUk-50">
          <mxGeometry relative="1" as="geometry" />
        </mxCell>
        <mxCell id="xq2F28zSy12SkbfvyaUk-51" value="CommonEncoder" style="swimlane;fontStyle=1;align=center;verticalAlign=top;childLayout=stackLayout;horizontal=1;startSize=26;horizontalStack=0;resizeParent=1;resizeParentMax=0;resizeLast=0;collapsible=1;marginBottom=0;" vertex="1" parent="WIyWlLk6GJQsqaUBKTNV-1">
          <mxGeometry x="290" y="454" width="160" height="86" as="geometry" />
        </mxCell>
        <mxCell id="xq2F28zSy12SkbfvyaUk-52" value="+ CommonSerializer" style="text;strokeColor=none;fillColor=none;align=left;verticalAlign=top;spacingLeft=4;spacingRight=4;overflow=hidden;rotatable=0;points=[[0,0.5],[1,0.5]];portConstraint=eastwest;" vertex="1" parent="xq2F28zSy12SkbfvyaUk-51">
          <mxGeometry y="26" width="160" height="26" as="geometry" />
        </mxCell>
        <mxCell id="xq2F28zSy12SkbfvyaUk-53" value="" style="line;strokeWidth=1;fillColor=none;align=left;verticalAlign=middle;spacingTop=-1;spacingLeft=3;spacingRight=3;rotatable=0;labelPosition=right;points=[];portConstraint=eastwest;" vertex="1" parent="xq2F28zSy12SkbfvyaUk-51">
          <mxGeometry y="52" width="160" height="8" as="geometry" />
        </mxCell>
        <mxCell id="xq2F28zSy12SkbfvyaUk-54" value="+ encode" style="text;strokeColor=none;fillColor=none;align=left;verticalAlign=top;spacingLeft=4;spacingRight=4;overflow=hidden;rotatable=0;points=[[0,0.5],[1,0.5]];portConstraint=eastwest;" vertex="1" parent="xq2F28zSy12SkbfvyaUk-51">
          <mxGeometry y="60" width="160" height="26" as="geometry" />
        </mxCell>
        <mxCell id="xq2F28zSy12SkbfvyaUk-56" value="ReplayingDecoder" style="swimlane;fontStyle=1;align=center;verticalAlign=top;childLayout=stackLayout;horizontal=1;startSize=26;horizontalStack=0;resizeParent=1;resizeParentMax=0;resizeLast=0;collapsible=1;marginBottom=0;" vertex="1" parent="WIyWlLk6GJQsqaUBKTNV-1">
          <mxGeometry x="590" y="390" width="190" height="34" as="geometry" />
        </mxCell>
        <mxCell id="xq2F28zSy12SkbfvyaUk-57" value="" style="line;strokeWidth=1;fillColor=none;align=left;verticalAlign=middle;spacingTop=-1;spacingLeft=3;spacingRight=3;rotatable=0;labelPosition=right;points=[];portConstraint=eastwest;" vertex="1" parent="xq2F28zSy12SkbfvyaUk-56">
          <mxGeometry y="26" width="190" height="8" as="geometry" />
        </mxCell>
        <mxCell id="xq2F28zSy12SkbfvyaUk-58" style="edgeStyle=orthogonalEdgeStyle;rounded=0;orthogonalLoop=1;jettySize=auto;html=1;exitX=0.5;exitY=0;exitDx=0;exitDy=0;entryX=0.511;entryY=0.25;entryDx=0;entryDy=0;entryPerimeter=0;" edge="1" parent="WIyWlLk6GJQsqaUBKTNV-1" source="xq2F28zSy12SkbfvyaUk-59" target="xq2F28zSy12SkbfvyaUk-57">
          <mxGeometry relative="1" as="geometry" />
        </mxCell>
        <mxCell id="xq2F28zSy12SkbfvyaUk-59" value="CommonDecoder" style="swimlane;fontStyle=1;align=center;verticalAlign=top;childLayout=stackLayout;horizontal=1;startSize=26;horizontalStack=0;resizeParent=1;resizeParentMax=0;resizeLast=0;collapsible=1;marginBottom=0;" vertex="1" parent="WIyWlLk6GJQsqaUBKTNV-1">
          <mxGeometry x="605" y="454" width="160" height="60" as="geometry" />
        </mxCell>
        <mxCell id="xq2F28zSy12SkbfvyaUk-61" value="" style="line;strokeWidth=1;fillColor=none;align=left;verticalAlign=middle;spacingTop=-1;spacingLeft=3;spacingRight=3;rotatable=0;labelPosition=right;points=[];portConstraint=eastwest;" vertex="1" parent="xq2F28zSy12SkbfvyaUk-59">
          <mxGeometry y="26" width="160" height="8" as="geometry" />
        </mxCell>
        <mxCell id="xq2F28zSy12SkbfvyaUk-62" value="+ decode" style="text;strokeColor=none;fillColor=none;align=left;verticalAlign=top;spacingLeft=4;spacingRight=4;overflow=hidden;rotatable=0;points=[[0,0.5],[1,0.5]];portConstraint=eastwest;" vertex="1" parent="xq2F28zSy12SkbfvyaUk-59">
          <mxGeometry y="34" width="160" height="26" as="geometry" />
        </mxCell>
        <mxCell id="xq2F28zSy12SkbfvyaUk-63" value="" style="ellipse;html=1;shape=startState;fillColor=#000000;strokeColor=#ff0000;" vertex="1" parent="WIyWlLk6GJQsqaUBKTNV-1">
          <mxGeometry x="250" y="700" width="30" height="30" as="geometry" />
        </mxCell>
        <mxCell id="xq2F28zSy12SkbfvyaUk-64" value="" style="edgeStyle=orthogonalEdgeStyle;html=1;verticalAlign=bottom;endArrow=open;endSize=8;strokeColor=#ff0000;" edge="1" source="xq2F28zSy12SkbfvyaUk-63" parent="WIyWlLk6GJQsqaUBKTNV-1">
          <mxGeometry relative="1" as="geometry">
            <mxPoint x="265" y="790" as="targetPoint" />
          </mxGeometry>
        </mxCell>
        <mxCell id="xq2F28zSy12SkbfvyaUk-65" value="NettyServerTest" style="swimlane;fontStyle=1;align=center;verticalAlign=top;childLayout=stackLayout;horizontal=1;startSize=26;horizontalStack=0;resizeParent=1;resizeParentMax=0;resizeLast=0;collapsible=1;marginBottom=0;" vertex="1" parent="WIyWlLk6GJQsqaUBKTNV-1">
          <mxGeometry x="185" y="800" width="160" height="60" as="geometry" />
        </mxCell>
        <mxCell id="xq2F28zSy12SkbfvyaUk-67" value="" style="line;strokeWidth=1;fillColor=none;align=left;verticalAlign=middle;spacingTop=-1;spacingLeft=3;spacingRight=3;rotatable=0;labelPosition=right;points=[];portConstraint=eastwest;" vertex="1" parent="xq2F28zSy12SkbfvyaUk-65">
          <mxGeometry y="26" width="160" height="8" as="geometry" />
        </mxCell>
        <mxCell id="xq2F28zSy12SkbfvyaUk-68" value="+ main" style="text;strokeColor=none;fillColor=none;align=left;verticalAlign=top;spacingLeft=4;spacingRight=4;overflow=hidden;rotatable=0;points=[[0,0.5],[1,0.5]];portConstraint=eastwest;" vertex="1" parent="xq2F28zSy12SkbfvyaUk-65">
          <mxGeometry y="34" width="160" height="26" as="geometry" />
        </mxCell>
        <mxCell id="xq2F28zSy12SkbfvyaUk-73" value="«interface»&lt;br&gt;&lt;b&gt;ServiceRegistry&lt;/b&gt;" style="html=1;" vertex="1" parent="WIyWlLk6GJQsqaUBKTNV-1">
          <mxGeometry x="465" y="710" width="110" height="50" as="geometry" />
        </mxCell>
        <mxCell id="xq2F28zSy12SkbfvyaUk-75" value="" style="curved=1;endArrow=classic;html=1;" edge="1" parent="WIyWlLk6GJQsqaUBKTNV-1">
          <mxGeometry width="50" height="50" relative="1" as="geometry">
            <mxPoint x="350" y="810" as="sourcePoint" />
            <mxPoint x="460" y="720" as="targetPoint" />
            <Array as="points">
              <mxPoint x="440" y="830" />
              <mxPoint x="400" y="720" />
            </Array>
          </mxGeometry>
        </mxCell>
        <mxCell id="xq2F28zSy12SkbfvyaUk-76" value="1.形成注册中心，并注册服务" style="text;html=1;strokeColor=none;fillColor=none;align=center;verticalAlign=middle;whiteSpace=wrap;rounded=0;" vertex="1" parent="WIyWlLk6GJQsqaUBKTNV-1">
          <mxGeometry x="460" y="690" width="165" as="geometry" />
        </mxCell>
        <mxCell id="xq2F28zSy12SkbfvyaUk-77" value="DefaultServiceRegistry" style="swimlane;fontStyle=1;align=center;verticalAlign=top;childLayout=stackLayout;horizontal=1;startSize=26;horizontalStack=0;resizeParent=1;resizeParentMax=0;resizeLast=0;collapsible=1;marginBottom=0;" vertex="1" parent="WIyWlLk6GJQsqaUBKTNV-1">
          <mxGeometry x="660" y="690" width="160" height="138" as="geometry" />
        </mxCell>
        <mxCell id="xq2F28zSy12SkbfvyaUk-78" value="+ serviceMap&lt;String, Object&gt;" style="text;strokeColor=none;fillColor=none;align=left;verticalAlign=top;spacingLeft=4;spacingRight=4;overflow=hidden;rotatable=0;points=[[0,0.5],[1,0.5]];portConstraint=eastwest;" vertex="1" parent="xq2F28zSy12SkbfvyaUk-77">
          <mxGeometry y="26" width="160" height="26" as="geometry" />
        </mxCell>
        <mxCell id="xq2F28zSy12SkbfvyaUk-82" value="+ Set: registeredService" style="text;strokeColor=none;fillColor=none;align=left;verticalAlign=top;spacingLeft=4;spacingRight=4;overflow=hidden;rotatable=0;points=[[0,0.5],[1,0.5]];portConstraint=eastwest;" vertex="1" parent="xq2F28zSy12SkbfvyaUk-77">
          <mxGeometry y="52" width="160" height="26" as="geometry" />
        </mxCell>
        <mxCell id="xq2F28zSy12SkbfvyaUk-79" value="" style="line;strokeWidth=1;fillColor=none;align=left;verticalAlign=middle;spacingTop=-1;spacingLeft=3;spacingRight=3;rotatable=0;labelPosition=right;points=[];portConstraint=eastwest;" vertex="1" parent="xq2F28zSy12SkbfvyaUk-77">
          <mxGeometry y="78" width="160" height="8" as="geometry" />
        </mxCell>
        <mxCell id="xq2F28zSy12SkbfvyaUk-80" value="+ register" style="text;strokeColor=none;fillColor=none;align=left;verticalAlign=top;spacingLeft=4;spacingRight=4;overflow=hidden;rotatable=0;points=[[0,0.5],[1,0.5]];portConstraint=eastwest;" vertex="1" parent="xq2F28zSy12SkbfvyaUk-77">
          <mxGeometry y="86" width="160" height="26" as="geometry" />
        </mxCell>
        <mxCell id="xq2F28zSy12SkbfvyaUk-83" value="+ getService" style="text;strokeColor=none;fillColor=none;align=left;verticalAlign=top;spacingLeft=4;spacingRight=4;overflow=hidden;rotatable=0;points=[[0,0.5],[1,0.5]];portConstraint=eastwest;" vertex="1" parent="xq2F28zSy12SkbfvyaUk-77">
          <mxGeometry y="112" width="160" height="26" as="geometry" />
        </mxCell>
        <mxCell id="xq2F28zSy12SkbfvyaUk-84" style="edgeStyle=orthogonalEdgeStyle;rounded=0;orthogonalLoop=1;jettySize=auto;html=1;exitX=0;exitY=0.5;exitDx=0;exitDy=0;" edge="1" parent="WIyWlLk6GJQsqaUBKTNV-1" source="xq2F28zSy12SkbfvyaUk-78">
          <mxGeometry relative="1" as="geometry">
            <mxPoint x="580" y="729" as="targetPoint" />
          </mxGeometry>
        </mxCell>
        <mxCell id="xq2F28zSy12SkbfvyaUk-85" value="维护一个ConcurrentHashMap记录已注册的服务，接口名为key" style="shape=note;whiteSpace=wrap;html=1;backgroundOutline=1;darkOpacity=0.05;fillColor=#FFF2CC;" vertex="1" parent="WIyWlLk6GJQsqaUBKTNV-1">
          <mxGeometry x="860" y="690" width="200" height="100" as="geometry" />
        </mxCell>
        <mxCell id="xq2F28zSy12SkbfvyaUk-87" value="«interface»&lt;br&gt;&lt;b&gt;RpcServer&lt;/b&gt;" style="html=1;" vertex="1" parent="WIyWlLk6GJQsqaUBKTNV-1">
          <mxGeometry x="465" y="890" width="110" height="50" as="geometry" />
        </mxCell>
        <mxCell id="xq2F28zSy12SkbfvyaUk-88" value="2.建立服务端对象，并启动服务监听端口" style="text;html=1;strokeColor=none;fillColor=none;align=center;verticalAlign=middle;whiteSpace=wrap;rounded=0;" vertex="1" parent="WIyWlLk6GJQsqaUBKTNV-1">
          <mxGeometry x="450" y="870" width="240" as="geometry" />
        </mxCell>
        <mxCell id="xq2F28zSy12SkbfvyaUk-93" style="edgeStyle=orthogonalEdgeStyle;rounded=0;orthogonalLoop=1;jettySize=auto;html=1;exitX=0;exitY=0.25;exitDx=0;exitDy=0;" edge="1" parent="WIyWlLk6GJQsqaUBKTNV-1" source="xq2F28zSy12SkbfvyaUk-89">
          <mxGeometry relative="1" as="geometry">
            <mxPoint x="580" y="922" as="targetPoint" />
          </mxGeometry>
        </mxCell>
        <mxCell id="xq2F28zSy12SkbfvyaUk-89" value="NettyServer" style="swimlane;fontStyle=1;align=center;verticalAlign=top;childLayout=stackLayout;horizontal=1;startSize=26;horizontalStack=0;resizeParent=1;resizeParentMax=0;resizeLast=0;collapsible=1;marginBottom=0;fillColor=#FFFFFF;" vertex="1" parent="WIyWlLk6GJQsqaUBKTNV-1">
          <mxGeometry x="660" y="900" width="160" height="86" as="geometry" />
        </mxCell>
        <mxCell id="xq2F28zSy12SkbfvyaUk-90" value="+ CommonSerializer" style="text;strokeColor=none;fillColor=none;align=left;verticalAlign=top;spacingLeft=4;spacingRight=4;overflow=hidden;rotatable=0;points=[[0,0.5],[1,0.5]];portConstraint=eastwest;" vertex="1" parent="xq2F28zSy12SkbfvyaUk-89">
          <mxGeometry y="26" width="160" height="26" as="geometry" />
        </mxCell>
        <mxCell id="xq2F28zSy12SkbfvyaUk-91" value="" style="line;strokeWidth=1;fillColor=none;align=left;verticalAlign=middle;spacingTop=-1;spacingLeft=3;spacingRight=3;rotatable=0;labelPosition=right;points=[];portConstraint=eastwest;" vertex="1" parent="xq2F28zSy12SkbfvyaUk-89">
          <mxGeometry y="52" width="160" height="8" as="geometry" />
        </mxCell>
        <mxCell id="xq2F28zSy12SkbfvyaUk-92" value="+ start(int port): void" style="text;strokeColor=none;fillColor=none;align=left;verticalAlign=top;spacingLeft=4;spacingRight=4;overflow=hidden;rotatable=0;points=[[0,0.5],[1,0.5]];portConstraint=eastwest;" vertex="1" parent="xq2F28zSy12SkbfvyaUk-89">
          <mxGeometry y="60" width="160" height="26" as="geometry" />
        </mxCell>
        <mxCell id="xq2F28zSy12SkbfvyaUk-94" value="1.新建引导类ServerBootdtrap&lt;br&gt;2.基于引导类，设置参数（.channel等）&lt;br&gt;3.监听接口serverBootstrap.bind(port).sync()获得接口的异步future&lt;br&gt;4.future.channel().closeFuture().sync()获取该通道的关闭通道结果，若未关闭，堵塞" style="shape=note;whiteSpace=wrap;html=1;backgroundOutline=1;darkOpacity=0.05;fillColor=#FFF2CC;" vertex="1" parent="WIyWlLk6GJQsqaUBKTNV-1">
          <mxGeometry x="860" y="880" width="230" height="140" as="geometry" />
        </mxCell>
        <mxCell id="xq2F28zSy12SkbfvyaUk-95" value="" style="curved=1;endArrow=classic;html=1;" edge="1" parent="WIyWlLk6GJQsqaUBKTNV-1">
          <mxGeometry width="50" height="50" relative="1" as="geometry">
            <mxPoint x="340" y="880" as="sourcePoint" />
            <mxPoint x="450" y="910" as="targetPoint" />
            <Array as="points">
              <mxPoint x="380" y="910" />
              <mxPoint x="410" y="860" />
            </Array>
          </mxGeometry>
        </mxCell>
        <mxCell id="xq2F28zSy12SkbfvyaUk-101" style="edgeStyle=orthogonalEdgeStyle;rounded=0;orthogonalLoop=1;jettySize=auto;html=1;exitX=0.5;exitY=1;exitDx=0;exitDy=0;entryX=0.5;entryY=0;entryDx=0;entryDy=0;entryPerimeter=0;" edge="1" parent="WIyWlLk6GJQsqaUBKTNV-1" source="xq2F28zSy12SkbfvyaUk-96" target="xq2F28zSy12SkbfvyaUk-100">
          <mxGeometry relative="1" as="geometry" />
        </mxCell>
        <mxCell id="xq2F28zSy12SkbfvyaUk-96" value="EventLoopGroup&lt;br&gt;bossGroup" style="ellipse;whiteSpace=wrap;html=1;fillColor=#FFFFFF;" vertex="1" parent="WIyWlLk6GJQsqaUBKTNV-1">
          <mxGeometry x="570" y="1040" width="120" height="80" as="geometry" />
        </mxCell>
        <mxCell id="xq2F28zSy12SkbfvyaUk-97" style="edgeStyle=orthogonalEdgeStyle;rounded=0;orthogonalLoop=1;jettySize=auto;html=1;exitX=0;exitY=0.5;exitDx=0;exitDy=0;entryX=0.5;entryY=0;entryDx=0;entryDy=0;" edge="1" parent="WIyWlLk6GJQsqaUBKTNV-1" source="xq2F28zSy12SkbfvyaUk-92" target="xq2F28zSy12SkbfvyaUk-96">
          <mxGeometry relative="1" as="geometry" />
        </mxCell>
        <mxCell id="xq2F28zSy12SkbfvyaUk-103" style="edgeStyle=orthogonalEdgeStyle;rounded=0;orthogonalLoop=1;jettySize=auto;html=1;exitX=0.5;exitY=1;exitDx=0;exitDy=0;entryX=0.5;entryY=0;entryDx=0;entryDy=0;entryPerimeter=0;" edge="1" parent="WIyWlLk6GJQsqaUBKTNV-1" source="xq2F28zSy12SkbfvyaUk-98" target="xq2F28zSy12SkbfvyaUk-102">
          <mxGeometry relative="1" as="geometry" />
        </mxCell>
        <mxCell id="xq2F28zSy12SkbfvyaUk-105" style="edgeStyle=orthogonalEdgeStyle;rounded=0;orthogonalLoop=1;jettySize=auto;html=1;exitX=1;exitY=0.5;exitDx=0;exitDy=0;entryX=0;entryY=0.5;entryDx=0;entryDy=0;" edge="1" parent="WIyWlLk6GJQsqaUBKTNV-1" source="xq2F28zSy12SkbfvyaUk-98" target="xq2F28zSy12SkbfvyaUk-104">
          <mxGeometry relative="1" as="geometry" />
        </mxCell>
        <mxCell id="xq2F28zSy12SkbfvyaUk-98" value="EventLoopGroup&lt;br&gt;bossGroup" style="ellipse;whiteSpace=wrap;html=1;fillColor=#FFFFFF;" vertex="1" parent="WIyWlLk6GJQsqaUBKTNV-1">
          <mxGeometry x="760" y="1040" width="120" height="80" as="geometry" />
        </mxCell>
        <mxCell id="xq2F28zSy12SkbfvyaUk-99" style="edgeStyle=orthogonalEdgeStyle;rounded=0;orthogonalLoop=1;jettySize=auto;html=1;exitX=1;exitY=0.5;exitDx=0;exitDy=0;entryX=0.733;entryY=0;entryDx=0;entryDy=0;entryPerimeter=0;" edge="1" parent="WIyWlLk6GJQsqaUBKTNV-1" source="xq2F28zSy12SkbfvyaUk-92" target="xq2F28zSy12SkbfvyaUk-98">
          <mxGeometry relative="1" as="geometry" />
        </mxCell>
        <mxCell id="xq2F28zSy12SkbfvyaUk-100" value="监听socket.accept()请求" style="shape=note;whiteSpace=wrap;html=1;backgroundOutline=1;darkOpacity=0.05;fillColor=#FFF2CC;" vertex="1" parent="WIyWlLk6GJQsqaUBKTNV-1">
          <mxGeometry x="545" y="1140" width="170" height="50" as="geometry" />
        </mxCell>
        <mxCell id="xq2F28zSy12SkbfvyaUk-102" value="监听其他读写请求" style="shape=note;whiteSpace=wrap;html=1;backgroundOutline=1;darkOpacity=0.05;fillColor=#FFF2CC;" vertex="1" parent="WIyWlLk6GJQsqaUBKTNV-1">
          <mxGeometry x="740" y="1140" width="170" height="50" as="geometry" />
        </mxCell>
        <mxCell id="xq2F28zSy12SkbfvyaUk-113" style="edgeStyle=orthogonalEdgeStyle;rounded=0;orthogonalLoop=1;jettySize=auto;html=1;exitX=0.5;exitY=1;exitDx=0;exitDy=0;entryX=0.5;entryY=0;entryDx=0;entryDy=0;" edge="1" parent="WIyWlLk6GJQsqaUBKTNV-1" source="xq2F28zSy12SkbfvyaUk-104" target="xq2F28zSy12SkbfvyaUk-108">
          <mxGeometry relative="1" as="geometry" />
        </mxCell>
        <mxCell id="xq2F28zSy12SkbfvyaUk-104" value="channelPipeLine" style="rounded=0;whiteSpace=wrap;html=1;fillColor=#FFFFFF;" vertex="1" parent="WIyWlLk6GJQsqaUBKTNV-1">
          <mxGeometry x="990" y="1065" width="95" height="30" as="geometry" />
        </mxCell>
        <mxCell id="xq2F28zSy12SkbfvyaUk-106" value="定义handle顺序" style="shape=note;whiteSpace=wrap;html=1;backgroundOutline=1;darkOpacity=0.05;fillColor=#FFF2CC;" vertex="1" parent="WIyWlLk6GJQsqaUBKTNV-1">
          <mxGeometry x="1120" y="1055" width="170" height="50" as="geometry" />
        </mxCell>
        <mxCell id="xq2F28zSy12SkbfvyaUk-112" style="edgeStyle=orthogonalEdgeStyle;rounded=0;orthogonalLoop=1;jettySize=auto;html=1;exitX=0.5;exitY=1;exitDx=0;exitDy=0;entryX=0.5;entryY=0;entryDx=0;entryDy=0;" edge="1" parent="WIyWlLk6GJQsqaUBKTNV-1" source="xq2F28zSy12SkbfvyaUk-108" target="xq2F28zSy12SkbfvyaUk-111">
          <mxGeometry relative="1" as="geometry" />
        </mxCell>
        <mxCell id="xq2F28zSy12SkbfvyaUk-108" value="decoder" style="rounded=0;whiteSpace=wrap;html=1;fillColor=#FFFFFF;" vertex="1" parent="WIyWlLk6GJQsqaUBKTNV-1">
          <mxGeometry x="990" y="1169" width="95" height="30" as="geometry" />
        </mxCell>
        <mxCell id="xq2F28zSy12SkbfvyaUk-115" style="edgeStyle=orthogonalEdgeStyle;rounded=0;orthogonalLoop=1;jettySize=auto;html=1;exitX=0.5;exitY=1;exitDx=0;exitDy=0;entryX=0.5;entryY=0;entryDx=0;entryDy=0;" edge="1" parent="WIyWlLk6GJQsqaUBKTNV-1" source="xq2F28zSy12SkbfvyaUk-111" target="xq2F28zSy12SkbfvyaUk-114">
          <mxGeometry relative="1" as="geometry" />
        </mxCell>
        <mxCell id="xq2F28zSy12SkbfvyaUk-111" value="NettyServerHandler" style="rounded=0;whiteSpace=wrap;html=1;fillColor=#FFFFFF;" vertex="1" parent="WIyWlLk6GJQsqaUBKTNV-1">
          <mxGeometry x="972.5" y="1220" width="130" height="30" as="geometry" />
        </mxCell>
        <mxCell id="xq2F28zSy12SkbfvyaUk-114" value="encoder" style="rounded=0;whiteSpace=wrap;html=1;fillColor=#FFFFFF;" vertex="1" parent="WIyWlLk6GJQsqaUBKTNV-1">
          <mxGeometry x="990" y="1270" width="95" height="30" as="geometry" />
        </mxCell>
        <mxCell id="xq2F28zSy12SkbfvyaUk-116" value="远程调用业务的关键实现：&lt;br&gt;1.获取接口名称&lt;br&gt;2.根据接口名称，从注册中心获取实现类对象&lt;br&gt;3.执行方法，返回结果包装为RpcResponse&lt;br&gt;4.writeAndFlush(RpcResponse)&lt;br&gt;5.future.addListener(ChannelFutrueListener.CLOSE)等待写出完成异步返回，结束方法" style="shape=note;whiteSpace=wrap;html=1;backgroundOutline=1;darkOpacity=0.05;fillColor=#FFF2CC;" vertex="1" parent="WIyWlLk6GJQsqaUBKTNV-1">
          <mxGeometry x="1160" y="1169" width="290" height="141" as="geometry" />
        </mxCell>
        <mxCell id="xq2F28zSy12SkbfvyaUk-118" value="" style="curved=1;endArrow=classic;html=1;" edge="1" parent="WIyWlLk6GJQsqaUBKTNV-1">
          <mxGeometry width="50" height="50" relative="1" as="geometry">
            <mxPoint x="1110" y="1230" as="sourcePoint" />
            <mxPoint x="1160" y="1180" as="targetPoint" />
            <Array as="points">
              <mxPoint x="1160" y="1230" />
              <mxPoint x="1110" y="1180" />
            </Array>
          </mxGeometry>
        </mxCell>
        <mxCell id="xq2F28zSy12SkbfvyaUk-119" value="" style="ellipse;html=1;shape=startState;fillColor=#000000;strokeColor=#ff0000;" vertex="1" parent="WIyWlLk6GJQsqaUBKTNV-1">
          <mxGeometry x="190" y="1370" width="30" height="30" as="geometry" />
        </mxCell>
        <mxCell id="xq2F28zSy12SkbfvyaUk-120" value="" style="edgeStyle=orthogonalEdgeStyle;html=1;verticalAlign=bottom;endArrow=open;endSize=8;strokeColor=#ff0000;" edge="1" source="xq2F28zSy12SkbfvyaUk-119" parent="WIyWlLk6GJQsqaUBKTNV-1">
          <mxGeometry relative="1" as="geometry">
            <mxPoint x="205" y="1460" as="targetPoint" />
          </mxGeometry>
        </mxCell>
        <mxCell id="xq2F28zSy12SkbfvyaUk-121" value="NettyClientTest" style="swimlane;fontStyle=1;align=center;verticalAlign=top;childLayout=stackLayout;horizontal=1;startSize=25;horizontalStack=0;resizeParent=1;resizeParentMax=0;resizeLast=0;collapsible=1;marginBottom=0;" vertex="1" parent="WIyWlLk6GJQsqaUBKTNV-1">
          <mxGeometry x="125" y="1470" width="160" height="59" as="geometry" />
        </mxCell>
        <mxCell id="xq2F28zSy12SkbfvyaUk-122" value="" style="line;strokeWidth=1;fillColor=none;align=left;verticalAlign=middle;spacingTop=-1;spacingLeft=3;spacingRight=3;rotatable=0;labelPosition=right;points=[];portConstraint=eastwest;" vertex="1" parent="xq2F28zSy12SkbfvyaUk-121">
          <mxGeometry y="25" width="160" height="8" as="geometry" />
        </mxCell>
        <mxCell id="xq2F28zSy12SkbfvyaUk-123" value="+ main" style="text;strokeColor=none;fillColor=none;align=left;verticalAlign=top;spacingLeft=4;spacingRight=4;overflow=hidden;rotatable=0;points=[[0,0.5],[1,0.5]];portConstraint=eastwest;" vertex="1" parent="xq2F28zSy12SkbfvyaUk-121">
          <mxGeometry y="33" width="160" height="26" as="geometry" />
        </mxCell>
        <mxCell id="xq2F28zSy12SkbfvyaUk-124" value="«interface»&lt;br&gt;&lt;b&gt;RpcClient&lt;/b&gt;" style="html=1;" vertex="1" parent="WIyWlLk6GJQsqaUBKTNV-1">
          <mxGeometry x="414" y="1380" width="110" height="50" as="geometry" />
        </mxCell>
        <mxCell id="xq2F28zSy12SkbfvyaUk-125" value="" style="curved=1;endArrow=classic;html=1;" edge="1" parent="WIyWlLk6GJQsqaUBKTNV-1">
          <mxGeometry width="50" height="50" relative="1" as="geometry">
            <mxPoint x="300" y="1480" as="sourcePoint" />
            <mxPoint x="400" y="1400" as="targetPoint" />
            <Array as="points">
              <mxPoint x="360" y="1450" />
              <mxPoint x="310" y="1400" />
            </Array>
          </mxGeometry>
        </mxCell>
        <mxCell id="xq2F28zSy12SkbfvyaUk-126" value="1.建立客户端对象，并启动客户端监听" style="text;html=1;strokeColor=none;fillColor=none;align=center;verticalAlign=middle;whiteSpace=wrap;rounded=0;" vertex="1" parent="WIyWlLk6GJQsqaUBKTNV-1">
          <mxGeometry x="400" y="1360" width="240" as="geometry" />
        </mxCell>
        <mxCell id="xq2F28zSy12SkbfvyaUk-128" value="NettyClient" style="swimlane;fontStyle=1;align=center;verticalAlign=top;childLayout=stackLayout;horizontal=1;startSize=26;horizontalStack=0;resizeParent=1;resizeParentMax=0;resizeLast=0;collapsible=1;marginBottom=0;fillColor=#FFFFFF;" vertex="1" parent="WIyWlLk6GJQsqaUBKTNV-1">
          <mxGeometry x="620" y="1380" width="190" height="140" as="geometry" />
        </mxCell>
        <mxCell id="xq2F28zSy12SkbfvyaUk-129" value="+ host: String" style="text;strokeColor=none;fillColor=none;align=left;verticalAlign=top;spacingLeft=4;spacingRight=4;overflow=hidden;rotatable=0;points=[[0,0.5],[1,0.5]];portConstraint=eastwest;" vertex="1" parent="xq2F28zSy12SkbfvyaUk-128">
          <mxGeometry y="26" width="190" height="26" as="geometry" />
        </mxCell>
        <mxCell id="xq2F28zSy12SkbfvyaUk-132" value="+ port: int" style="text;strokeColor=none;fillColor=none;align=left;verticalAlign=top;spacingLeft=4;spacingRight=4;overflow=hidden;rotatable=0;points=[[0,0.5],[1,0.5]];portConstraint=eastwest;" vertex="1" parent="xq2F28zSy12SkbfvyaUk-128">
          <mxGeometry y="52" width="190" height="26" as="geometry" />
        </mxCell>
        <mxCell id="xq2F28zSy12SkbfvyaUk-133" value="+ BOOTSTRAP: Bootstrap" style="text;strokeColor=none;fillColor=none;align=left;verticalAlign=top;spacingLeft=4;spacingRight=4;overflow=hidden;rotatable=0;points=[[0,0.5],[1,0.5]];portConstraint=eastwest;" vertex="1" parent="xq2F28zSy12SkbfvyaUk-128">
          <mxGeometry y="78" width="190" height="26" as="geometry" />
        </mxCell>
        <mxCell id="xq2F28zSy12SkbfvyaUk-130" value="" style="line;strokeWidth=1;fillColor=none;align=left;verticalAlign=middle;spacingTop=-1;spacingLeft=3;spacingRight=3;rotatable=0;labelPosition=right;points=[];portConstraint=eastwest;" vertex="1" parent="xq2F28zSy12SkbfvyaUk-128">
          <mxGeometry y="104" width="190" height="8" as="geometry" />
        </mxCell>
        <mxCell id="xq2F28zSy12SkbfvyaUk-131" value="+ sendRequesr(request): Object" style="text;strokeColor=none;fillColor=none;align=left;verticalAlign=top;spacingLeft=4;spacingRight=4;overflow=hidden;rotatable=0;points=[[0,0.5],[1,0.5]];portConstraint=eastwest;" vertex="1" parent="xq2F28zSy12SkbfvyaUk-128">
          <mxGeometry y="112" width="190" height="28" as="geometry" />
        </mxCell>
        <mxCell id="xq2F28zSy12SkbfvyaUk-134" style="edgeStyle=orthogonalEdgeStyle;rounded=0;orthogonalLoop=1;jettySize=auto;html=1;entryX=1;entryY=0.75;entryDx=0;entryDy=0;" edge="1" parent="WIyWlLk6GJQsqaUBKTNV-1" target="xq2F28zSy12SkbfvyaUk-124">
          <mxGeometry relative="1" as="geometry">
            <mxPoint x="620" y="1418" as="sourcePoint" />
          </mxGeometry>
        </mxCell>
        <mxCell id="xq2F28zSy12SkbfvyaUk-138" style="edgeStyle=orthogonalEdgeStyle;rounded=0;orthogonalLoop=1;jettySize=auto;html=1;exitX=0.5;exitY=1;exitDx=0;exitDy=0;entryX=0.5;entryY=0;entryDx=0;entryDy=0;entryPerimeter=0;" edge="1" parent="WIyWlLk6GJQsqaUBKTNV-1" source="xq2F28zSy12SkbfvyaUk-135" target="xq2F28zSy12SkbfvyaUk-137">
          <mxGeometry relative="1" as="geometry" />
        </mxCell>
        <mxCell id="xq2F28zSy12SkbfvyaUk-146" style="edgeStyle=orthogonalEdgeStyle;rounded=0;orthogonalLoop=1;jettySize=auto;html=1;exitX=1;exitY=0.5;exitDx=0;exitDy=0;entryX=0;entryY=0.5;entryDx=0;entryDy=0;" edge="1" parent="WIyWlLk6GJQsqaUBKTNV-1" source="xq2F28zSy12SkbfvyaUk-135" target="xq2F28zSy12SkbfvyaUk-140">
          <mxGeometry relative="1" as="geometry" />
        </mxCell>
        <mxCell id="xq2F28zSy12SkbfvyaUk-135" value="EventLoopGroup&lt;br&gt;workerGroup" style="ellipse;whiteSpace=wrap;html=1;fillColor=#FFFFFF;" vertex="1" parent="WIyWlLk6GJQsqaUBKTNV-1">
          <mxGeometry x="655" y="1560" width="120" height="80" as="geometry" />
        </mxCell>
        <mxCell id="xq2F28zSy12SkbfvyaUk-136" style="edgeStyle=orthogonalEdgeStyle;rounded=0;orthogonalLoop=1;jettySize=auto;html=1;exitX=1;exitY=0.5;exitDx=0;exitDy=0;entryX=0.5;entryY=0;entryDx=0;entryDy=0;" edge="1" parent="WIyWlLk6GJQsqaUBKTNV-1" source="xq2F28zSy12SkbfvyaUk-131" target="xq2F28zSy12SkbfvyaUk-135">
          <mxGeometry relative="1" as="geometry" />
        </mxCell>
        <mxCell id="xq2F28zSy12SkbfvyaUk-149" style="edgeStyle=orthogonalEdgeStyle;rounded=0;orthogonalLoop=1;jettySize=auto;html=1;exitX=0.5;exitY=1;exitDx=0;exitDy=0;exitPerimeter=0;entryX=0.5;entryY=0;entryDx=0;entryDy=0;" edge="1" parent="WIyWlLk6GJQsqaUBKTNV-1" source="xq2F28zSy12SkbfvyaUk-137" target="xq2F28zSy12SkbfvyaUk-148">
          <mxGeometry relative="1" as="geometry" />
        </mxCell>
        <mxCell id="xq2F28zSy12SkbfvyaUk-137" value="监听其他读写请求" style="shape=note;whiteSpace=wrap;html=1;backgroundOutline=1;darkOpacity=0.05;fillColor=#FFF2CC;" vertex="1" parent="WIyWlLk6GJQsqaUBKTNV-1">
          <mxGeometry x="630" y="1660" width="170" height="50" as="geometry" />
        </mxCell>
        <mxCell id="xq2F28zSy12SkbfvyaUk-139" style="edgeStyle=orthogonalEdgeStyle;rounded=0;orthogonalLoop=1;jettySize=auto;html=1;exitX=0.5;exitY=1;exitDx=0;exitDy=0;entryX=0.5;entryY=0;entryDx=0;entryDy=0;" edge="1" parent="WIyWlLk6GJQsqaUBKTNV-1" source="xq2F28zSy12SkbfvyaUk-140" target="xq2F28zSy12SkbfvyaUk-142">
          <mxGeometry relative="1" as="geometry" />
        </mxCell>
        <mxCell id="xq2F28zSy12SkbfvyaUk-140" value="channelPipeLine" style="rounded=0;whiteSpace=wrap;html=1;fillColor=#FFFFFF;" vertex="1" parent="WIyWlLk6GJQsqaUBKTNV-1">
          <mxGeometry x="860" y="1585" width="95" height="30" as="geometry" />
        </mxCell>
        <mxCell id="xq2F28zSy12SkbfvyaUk-141" style="edgeStyle=orthogonalEdgeStyle;rounded=0;orthogonalLoop=1;jettySize=auto;html=1;exitX=0.5;exitY=1;exitDx=0;exitDy=0;entryX=0.5;entryY=0;entryDx=0;entryDy=0;" edge="1" parent="WIyWlLk6GJQsqaUBKTNV-1" source="xq2F28zSy12SkbfvyaUk-142" target="xq2F28zSy12SkbfvyaUk-144">
          <mxGeometry relative="1" as="geometry" />
        </mxCell>
        <mxCell id="xq2F28zSy12SkbfvyaUk-142" value="encoder" style="rounded=0;whiteSpace=wrap;html=1;fillColor=#FFFFFF;" vertex="1" parent="WIyWlLk6GJQsqaUBKTNV-1">
          <mxGeometry x="860" y="1689" width="95" height="30" as="geometry" />
        </mxCell>
        <mxCell id="xq2F28zSy12SkbfvyaUk-143" style="edgeStyle=orthogonalEdgeStyle;rounded=0;orthogonalLoop=1;jettySize=auto;html=1;exitX=0.5;exitY=1;exitDx=0;exitDy=0;entryX=0.5;entryY=0;entryDx=0;entryDy=0;" edge="1" parent="WIyWlLk6GJQsqaUBKTNV-1" source="xq2F28zSy12SkbfvyaUk-144" target="xq2F28zSy12SkbfvyaUk-145">
          <mxGeometry relative="1" as="geometry" />
        </mxCell>
        <mxCell id="xq2F28zSy12SkbfvyaUk-144" value="NettyClientHandler" style="rounded=0;whiteSpace=wrap;html=1;fillColor=#FFFFFF;" vertex="1" parent="WIyWlLk6GJQsqaUBKTNV-1">
          <mxGeometry x="842.5" y="1740" width="130" height="30" as="geometry" />
        </mxCell>
        <mxCell id="xq2F28zSy12SkbfvyaUk-145" value="decoder" style="rounded=0;whiteSpace=wrap;html=1;fillColor=#FFFFFF;" vertex="1" parent="WIyWlLk6GJQsqaUBKTNV-1">
          <mxGeometry x="860" y="1790" width="95" height="30" as="geometry" />
        </mxCell>
        <mxCell id="xq2F28zSy12SkbfvyaUk-147" value="远程调用返回结果的处理：&lt;br&gt;1.设置key，AtrributeKey.valueOf(&quot;rpcResponse&quot; + rpcResponse.getRequestId())&lt;br&gt;2.设置key，channelHandlerContext.channel().attr(key).set(rpcResponse)&lt;br&gt;3.关闭channel" style="shape=note;whiteSpace=wrap;html=1;backgroundOutline=1;darkOpacity=0.05;fillColor=#FFF2CC;" vertex="1" parent="WIyWlLk6GJQsqaUBKTNV-1">
          <mxGeometry x="1030" y="1684.5" width="290" height="141" as="geometry" />
        </mxCell>
        <mxCell id="xq2F28zSy12SkbfvyaUk-151" style="edgeStyle=orthogonalEdgeStyle;rounded=0;orthogonalLoop=1;jettySize=auto;html=1;exitX=0.5;exitY=1;exitDx=0;exitDy=0;entryX=0.5;entryY=0;entryDx=0;entryDy=0;" edge="1" parent="WIyWlLk6GJQsqaUBKTNV-1" source="xq2F28zSy12SkbfvyaUk-148" target="xq2F28zSy12SkbfvyaUk-150">
          <mxGeometry relative="1" as="geometry" />
        </mxCell>
        <mxCell id="xq2F28zSy12SkbfvyaUk-148" value="根据future.channel监听读写消息" style="rounded=0;whiteSpace=wrap;html=1;fillColor=#FFFFFF;" vertex="1" parent="WIyWlLk6GJQsqaUBKTNV-1">
          <mxGeometry x="655" y="1754" width="120" height="60" as="geometry" />
        </mxCell>
        <mxCell id="xq2F28zSy12SkbfvyaUk-150" value="channel关闭时，获取key，得到response" style="rounded=0;whiteSpace=wrap;html=1;fillColor=#FFFFFF;" vertex="1" parent="WIyWlLk6GJQsqaUBKTNV-1">
          <mxGeometry x="655" y="1840" width="120" height="60" as="geometry" />
        </mxCell>
        <mxCell id="xq2F28zSy12SkbfvyaUk-152" value="RpcClientProxy" style="swimlane;fontStyle=1;align=center;verticalAlign=top;childLayout=stackLayout;horizontal=1;startSize=26;horizontalStack=0;resizeParent=1;resizeParentMax=0;resizeLast=0;collapsible=1;marginBottom=0;fillColor=#FFFFFF;" vertex="1" parent="WIyWlLk6GJQsqaUBKTNV-1">
          <mxGeometry x="370" y="1570" width="210" height="110" as="geometry" />
        </mxCell>
        <mxCell id="xq2F28zSy12SkbfvyaUk-153" value="+ client: RpcClient" style="text;strokeColor=none;fillColor=none;align=left;verticalAlign=top;spacingLeft=4;spacingRight=4;overflow=hidden;rotatable=0;points=[[0,0.5],[1,0.5]];portConstraint=eastwest;" vertex="1" parent="xq2F28zSy12SkbfvyaUk-152">
          <mxGeometry y="26" width="210" height="26" as="geometry" />
        </mxCell>
        <mxCell id="xq2F28zSy12SkbfvyaUk-154" value="" style="line;strokeWidth=1;fillColor=none;align=left;verticalAlign=middle;spacingTop=-1;spacingLeft=3;spacingRight=3;rotatable=0;labelPosition=right;points=[];portConstraint=eastwest;" vertex="1" parent="xq2F28zSy12SkbfvyaUk-152">
          <mxGeometry y="52" width="210" height="8" as="geometry" />
        </mxCell>
        <mxCell id="xq2F28zSy12SkbfvyaUk-158" value="+ getProxy(Class): Object" style="text;strokeColor=none;fillColor=none;align=left;verticalAlign=top;spacingLeft=4;spacingRight=4;overflow=hidden;rotatable=0;points=[[0,0.5],[1,0.5]];portConstraint=eastwest;" vertex="1" parent="xq2F28zSy12SkbfvyaUk-152">
          <mxGeometry y="60" width="210" height="26" as="geometry" />
        </mxCell>
        <mxCell id="xq2F28zSy12SkbfvyaUk-155" value="+ invoke(Proxy，Method， Object[])" style="text;strokeColor=none;fillColor=none;align=left;verticalAlign=top;spacingLeft=4;spacingRight=4;overflow=hidden;rotatable=0;points=[[0,0.5],[1,0.5]];portConstraint=eastwest;" vertex="1" parent="xq2F28zSy12SkbfvyaUk-152">
          <mxGeometry y="86" width="210" height="24" as="geometry" />
        </mxCell>
        <mxCell id="xq2F28zSy12SkbfvyaUk-156" value="2.获取代理对象，通过反射实现远程调用" style="text;html=1;strokeColor=none;fillColor=none;align=center;verticalAlign=middle;whiteSpace=wrap;rounded=0;" vertex="1" parent="WIyWlLk6GJQsqaUBKTNV-1">
          <mxGeometry x="365" y="1550" width="240" as="geometry" />
        </mxCell>
        <mxCell id="xq2F28zSy12SkbfvyaUk-157" value="" style="curved=1;endArrow=classic;html=1;" edge="1" parent="WIyWlLk6GJQsqaUBKTNV-1">
          <mxGeometry width="50" height="50" relative="1" as="geometry">
            <mxPoint x="230" y="1540" as="sourcePoint" />
            <mxPoint x="370" y="1610" as="targetPoint" />
            <Array as="points">
              <mxPoint x="270" y="1590" />
              <mxPoint x="310" y="1540" />
            </Array>
          </mxGeometry>
        </mxCell>
        <mxCell id="xq2F28zSy12SkbfvyaUk-159" value="" style="shape=flexArrow;endArrow=classic;html=1;exitX=0.919;exitY=-0.083;exitDx=0;exitDy=0;exitPerimeter=0;entryX=0.032;entryY=1;entryDx=0;entryDy=0;entryPerimeter=0;" edge="1" parent="WIyWlLk6GJQsqaUBKTNV-1" source="xq2F28zSy12SkbfvyaUk-155" target="xq2F28zSy12SkbfvyaUk-131">
          <mxGeometry width="50" height="50" relative="1" as="geometry">
            <mxPoint x="600" y="1640" as="sourcePoint" />
            <mxPoint x="650" y="1590" as="targetPoint" />
          </mxGeometry>
        </mxCell>
      </root>
    </mxGraphModel>
  </diagram>
</mxfile>
